<?xml version="1.0" encoding="UTF-8" standalone="no"?>
<!-- Created with Inkscape (http://www.inkscape.org/) -->

<svg
   version="1.1"
   id="svg2"
   width="721.39502"
   height="688.43213"
   viewBox="0 0 721.39502 688.43212"
   xmlns="http://www.w3.org/2000/svg"
   xmlns:svg="http://www.w3.org/2000/svg">
  <defs
     id="defs6">
    <clipPath
       clipPathUnits="userSpaceOnUse"
       id="clipPath216">
      <path
         d="M 0,516.324 H 541.047 V 0 H 0 Z"
         id="path214" />
    </clipPath>
  </defs>
  <g
     id="g208"
     transform="matrix(1.3333333,0,0,-1.3333333,-4.5733253e-4,688.43145)">
    <g
       id="g210">
      <g
         id="g212"
         clip-path="url(#clipPath216)">
        <g
           id="g218"
           transform="translate(113.5777,13.3525)">
          <path
             d="m 0,0 c -12.488,10.461 -24.28,21.697 -36.14,32.853 -3.974,3.738 -5.229,8.208 -3.755,13.598 4.2,15.37 10.335,29.917 18.229,43.732 0.925,1.619 2.079,3.167 3.385,4.494 3.056,3.104 6.552,4.206 10.852,2.35 8.132,-3.51 16.297,-6.948 24.167,-11.019 6.193,-3.204 7.588,-5.649 7.648,-12.679 C 24.392,68.85 23.461,64.483 22.065,60.307 17.339,46.171 14.254,31.704 12.389,16.932 11.81,12.345 10.804,7.791 9.704,3.293 8.399,-2.047 4.173,-3.496 0,0 m -60.889,62.553 c -0.596,-1.543 -1.139,-3.106 -1.769,-4.829 -3.892,1.707 -4.194,4.181 -3.191,7.697 4.866,17.058 13.469,32.26 22.776,47.159 1.545,2.474 2.913,1.498 4.602,0.595 2.268,-1.214 0.326,-2.227 -0.238,-3.089 -9.655,-14.793 -15.868,-31.185 -22.18,-47.533 m -9.356,4.607 c -0.439,-1.599 -1.002,-2.13 -2.409,-0.812 -9.29,8.713 -18.906,17.101 -27.49,26.53 -5,5.492 -6.688,12.36 -6.958,20.464 1.098,8.548 4.645,16.662 11.813,23 1.82,1.61 3.896,1.924 6.207,1.475 3.409,-0.664 6.509,-2.154 9.645,-3.541 10.756,-4.757 20.757,-10.972 31.265,-16.204 2.464,-1.227 1.014,-2.373 0.273,-3.614 -7.729,-12.939 -15.485,-25.863 -20.186,-40.316 -0.754,-2.317 -1.514,-4.634 -2.16,-6.982 m 83.267,107.778 c -5.924,8.765 -4.996,15.877 0.29,23.2 9.224,12.782 8.024,32.975 -2.176,46.126 -1.463,1.886 -3.102,3.684 -1.921,6.238 1.232,2.664 3.852,2.803 6.287,2.814 10.868,0.047 21.737,-0.103 32.604,-0.015 33.267,0.269 66.534,0.618 99.8,0.927 3.216,0.03 6.432,0.004 9.647,0.004 46.907,-0.258 93.81,-1.244 140.72,-0.875 0.554,0.004 1.112,0.015 1.663,-0.033 2.223,-0.19 4.614,-0.275 5.771,-2.569 1.234,-2.447 -0.093,-4.356 -1.627,-6.302 -10.995,-13.955 -11.312,-33.742 -1.011,-48.349 3.98,-5.642 4.677,-11.689 0.926,-17.769 -12.829,-20.791 -29.385,-37.972 -49.83,-51.406 -29.553,-19.42 -62.215,-29.504 -97.337,-29.391 -32.365,0.104 -62.761,9.079 -90.651,26.056 -21.617,13.16 -39.037,30.457 -53.155,51.344 m -22.591,15.929 c -2.863,-0.641 -3.661,1.309 -3.85,3.323 -0.28,2.966 -0.072,5.978 -0.072,8.97 -0.019,0 -0.038,0 -0.057,0.001 0,2.661 -0.129,5.329 0.03,7.981 0.23,3.821 2.34,5.824 6.178,5.932 4.985,0.14 9.973,0.166 14.961,0.22 2.914,0.031 3.845,-1.35 3.383,-4.239 C 9.356,202.747 0.484,193.118 -9.569,190.867 m -4.083,47.224 c -0.154,2.989 0.023,5.959 0.388,8.929 0.4,3.251 1.805,4.247 4.933,3.132 3.8,-1.355 7.182,-3.424 9.878,-6.488 3.695,-4.197 6.495,-8.915 8.374,-14.197 0.851,-2.392 0.192,-4.211 -2.26,-4.47 -5.945,-0.625 -11.859,-0.449 -17.507,2.016 -4.245,1.852 -3.541,5.644 -3.798,9.088 -0.05,0.66 -0.008,1.327 -0.008,1.99 m -0.278,34.815 c 0.157,4.221 1.283,5.758 5.429,6.777 14.142,3.474 28.545,5.608 43.028,6.559 36.951,2.427 73.927,4.541 110.977,4.832 31.722,0.249 63.405,-0.719 95.079,-2.515 20.477,-1.161 40.989,-1.69 61.31,-4.799 7.125,-1.091 14.245,-2.213 21.239,-3.976 4.827,-1.217 5.86,-2.67 5.9,-7.758 0.004,-0.443 0.001,-0.887 0.001,-1.331 -0.001,-7.614 -1.901,-9.849 -9.626,-10.317 -6.521,-0.394 -13.074,-0.516 -19.608,-0.423 -44.575,0.635 -89.149,1.361 -133.724,2.048 -2.881,0.044 -5.763,0.005 -8.644,0.005 10e-4,0.017 10e-4,0.034 0.003,0.05 -45.132,-0.593 -90.265,-1.084 -135.393,-1.875 -8.097,-0.142 -16.178,0.397 -24.267,0.043 -1.534,-0.067 -3.109,0.15 -4.625,0.444 -5.503,1.067 -7.061,3.001 -7.085,8.577 -0.005,1.22 -0.04,2.441 0.006,3.659 m 5.95,68.619 c 6.087,4.014 12.792,6.603 19.648,8.788 11.841,3.776 24.089,5.847 36.262,8.206 0.895,0.173 2.127,0.839 2.364,-0.762 0.23,-1.557 -1.186,-1.268 -2.052,-1.505 -1.886,-0.514 -3.948,-0.554 -4.111,-3.421 -0.067,-1.184 -1.829,-0.951 -2.849,-1.128 -2.277,-0.394 -4.12,-1.114 -4.044,-3.877 0.047,-1.741 -1.225,-1.855 -2.44,-2.057 -2.072,-0.345 -3.671,-1.191 -3.354,-3.647 0.268,-2.075 -1.352,-1.991 -2.522,-2.309 -2.04,-0.556 -3.948,-1.104 -3.445,-3.885 0.054,-0.299 -0.111,-0.918 -0.157,-0.916 -4.492,0.173 -4.886,-5.373 -8.656,-6.189 -1.349,-0.293 -2.285,-1.236 -2.197,-2.558 0.161,-2.403 -1.121,-3.001 -3.136,-3.181 -1.508,-0.135 -2.611,-1.068 -2.368,-2.637 0.394,-2.554 -1.125,-3.069 -3.042,-3.231 -2.797,-0.238 -4.757,-1.164 -4.25,-4.501 0.282,-1.869 -1.162,-1.935 -2.338,-1.969 -2.882,-0.083 -4.002,-1.544 -3.573,-4.282 0.314,-2.006 -0.437,-2.762 -2.486,-2.84 -2.064,-0.078 -2.364,0.916 -2.382,2.603 -0.021,2.1 -0.255,4.199 -0.417,6.585 -0.548,1.911 0.416,3.006 2.401,4.036 3.164,1.642 4.261,4.721 4.034,8.155 -0.217,3.282 -1.896,5.626 -5.147,6.603 -1.13,0.34 -2.157,0.655 -2.033,2.129 0.232,2.744 -0.844,5.723 2.29,7.79 m 42.975,81.009 c 3.566,0.047 6.546,-2.878 6.629,-6.508 0.087,-3.771 -2.767,-6.574 -6.756,-6.637 -3.913,-0.062 -6.75,2.498 -6.82,6.155 -0.074,3.824 3.022,6.938 6.947,6.99 m 35.05,-67.455 c 21.306,-15.351 42.661,-30.634 63.992,-45.949 4.027,-2.892 8.011,-5.844 12.557,-9.164 -49.951,-4.25 -99.568,-2.373 -148.304,-12.303 -0.084,1.756 1.132,2.39 1.893,3.23 20.397,22.534 41.882,43.965 64.758,63.997 1.931,1.692 3.197,1.563 5.104,0.189 m 16.592,8.634 c 10.45,1.338 20.922,2.527 31.437,3.063 13.064,0.667 26.13,1.474 39.227,1.398 23.62,-0.405 47.211,-1.256 70.657,-4.444 1.494,-0.203 3.226,0.117 3.009,-2.4 -0.206,-2.384 -1.847,-1.779 -3.162,-1.705 -3.284,0.186 -5.788,-0.291 -5.478,-4.548 0.169,-2.325 -1.805,-1.763 -3.137,-1.751 -4.684,0.04 -4.757,0.071 -4.948,-4.496 -0.06,-1.437 -0.458,-1.93 -1.902,-1.942 -3.07,-0.024 -6.204,0.066 -5.918,-4.596 0.104,-1.698 -1.728,-1.063 -2.634,-0.97 -3.158,0.323 -5.232,-0.376 -5.152,-4.113 0.047,-2.168 -1.739,-1.6 -2.94,-1.563 -2.434,0.077 -4.471,-0.059 -4.468,-3.342 0.001,-2.08 -1.748,-1.328 -2.751,-1.148 -3.27,0.586 -4.924,-0.696 -4.923,-3.971 0,-1.988 -0.927,-2.479 -2.704,-2.143 -3.422,0.648 -5.384,-0.383 -5.046,-4.291 0.187,-2.144 -1.527,-1.767 -2.796,-1.712 -2.979,0.13 -5.696,0.073 -5.662,-4.07 0.013,-1.532 -1.383,-1.202 -2.282,-1.123 -2.605,0.231 -4.42,-0.372 -4.353,-3.461 0.043,-1.996 -1.364,-2.002 -2.753,-1.864 -1.377,0.136 -3.461,-0.814 -3.539,1.71 -0.097,3.181 -1.81,3.949 -4.59,3.599 -1.004,-0.126 -2.22,-0.101 -2.201,1.319 0.05,3.692 -2.3,4.173 -5.112,3.859 -2.345,-0.262 -3.495,0.258 -3.293,2.952 0.219,2.921 -1.791,3.575 -4.197,3.124 -2.532,-0.474 -3.693,0.285 -3.672,2.986 0.019,2.576 -1.555,3.508 -3.986,3.095 -2.021,-0.344 -3.605,-0.441 -3.78,2.438 -0.139,2.286 -2.236,2.175 -3.886,1.986 -2.348,-0.27 -3.567,0.446 -3.528,2.981 0.042,2.752 -1.918,2.84 -3.932,2.703 -2.074,-0.141 -3.804,-0.463 -3.774,2.835 0.026,2.762 -2.836,2.804 -4.882,2.746 -2.243,-0.063 -2.994,0.712 -2.737,2.867 0.385,3.223 -1.27,4.137 -4.214,3.629 -2.549,-0.44 -4.343,0.022 -4.023,3.322 0.181,1.871 -1.121,2.776 -2.937,2.867 -0.885,0.044 -1.775,0.005 -2.66,0.056 -1.202,0.068 -2.74,-0.648 -2.908,1.593 -0.152,2.019 0.854,2.31 2.53,2.525 m 9.268,109.383 c 3.406,-0.078 6.208,-2.833 6.192,-6.086 -0.015,-3.148 -2.646,-5.45 -6.253,-5.473 -3.603,-0.023 -6.372,2.503 -6.347,5.79 0.024,3.264 2.896,5.85 6.408,5.769 m 123.426,-0.019 c 3.578,-0.022 6.143,-2.521 6.109,-5.953 -0.033,-3.385 -2.688,-5.701 -6.402,-5.585 -3.678,0.116 -6.041,2.355 -5.966,5.654 0.078,3.394 2.747,5.904 6.259,5.884 m 31.23,-118.584 c 22.791,-19.977 44.179,-41.363 64.53,-63.802 0.653,-0.72 1.236,-1.504 1.748,-2.666 -48.806,9.529 -98.433,7.717 -148.466,11.934 6.255,4.516 11.977,8.664 17.717,12.788 19.533,14.035 39.102,28.022 58.573,42.141 2.361,1.712 3.788,1.454 5.898,-0.395 m 14.135,3.231 c 0.201,1.224 1.184,1.058 2.1,0.871 14.222,-2.898 28.626,-5.043 42.279,-10.28 4.456,-1.71 8.826,-3.562 12.906,-6.104 2.437,-1.519 3.786,-3.343 3.205,-6.166 0.364,-2.388 0.078,-4.075 -2.695,-4.83 -2.87,-0.782 -4.082,-3.266 -4.281,-6.137 -0.231,-3.312 0.614,-6.416 3.667,-7.992 2.333,-1.205 2.816,-2.696 2.56,-5.007 -0.22,-1.978 -0.215,-3.988 -0.196,-5.983 0.018,-1.823 -0.674,-2.567 -2.583,-2.46 -1.782,0.1 -2.766,0.606 -2.415,2.567 0.561,3.131 -0.81,4.574 -3.938,4.591 -1.339,0.008 -2.408,0.388 -2.023,2.175 0.656,3.045 -1.208,3.893 -3.734,4.174 -2.075,0.232 -3.913,0.581 -3.456,3.549 0.236,1.532 -1.138,2.323 -2.601,2.459 -1.887,0.177 -3.211,0.755 -2.915,3.022 0.053,0.409 -0.129,1.206 -0.298,1.232 -4.156,0.667 -4.755,5.842 -8.659,6.793 -0.934,0.228 -2.192,0.27 -1.963,1.714 0.442,2.794 -1.432,3.387 -3.484,3.864 -1.451,0.338 -2.735,0.651 -2.525,2.715 0.211,2.073 -1.277,2.938 -3.092,3.202 -1.66,0.243 -2.9,0.586 -2.823,2.772 0.08,2.277 -1.777,2.795 -3.613,3.143 -1.669,0.315 -3.327,0.272 -3.697,2.797 -0.245,1.665 -2.485,1.483 -3.94,1.901 -0.79,0.227 -2.005,0.082 -1.786,1.418 m 22.308,57.858 c -0.103,-3.705 -2.888,-6.243 -6.796,-6.19 -4.021,0.053 -6.849,2.822 -6.752,6.61 0.095,3.692 2.996,6.58 6.576,6.544 3.908,-0.038 7.075,-3.202 6.972,-6.964 m -19.416,57.294 c 0.44,2.842 0.954,5.694 1.737,8.456 2.421,8.536 9.011,12.075 17.046,13.174 6.133,0.838 12.168,-0.301 17.746,-3.193 0.822,-0.426 2.196,-0.64 2.125,-1.769 -0.066,-1.069 -1.401,-1.313 -2.268,-1.708 -2.414,-1.102 -4.947,-1.954 -7.318,-3.135 -10.309,-5.138 -16.101,-13.866 -19.203,-24.626 -0.41,-1.423 -0.657,-3.008 0.111,-4.414 0.547,-0.153 0.764,0.159 0.786,0.466 0.816,11.025 7.703,18.023 16.04,23.983 1.199,0.856 2.856,1.275 4.357,1.47 3.903,0.504 7.565,1.577 10.977,3.574 1.561,0.913 3.174,0.651 4.741,-0.25 3.584,-2.062 5.379,-5.47 6.98,-9.049 0.547,-1.221 -0.395,-1.477 -1.118,-1.985 -4.508,-3.169 -8.955,-6.305 -14.052,-8.656 -7.927,-3.656 -12.809,-10.361 -15.641,-18.554 -0.253,-0.731 -0.431,-1.493 -0.569,-2.255 -0.096,-0.532 -0.066,-1.087 0.101,-1.712 1.491,4.665 3.515,8.962 7.017,12.487 4.2,4.228 9.427,6.565 14.924,8.387 2.562,0.849 4.888,1.917 7.025,3.615 4.962,3.942 9.152,3.008 12.278,-2.546 0.216,-0.385 0.401,-0.791 0.574,-1.199 2.45,-5.784 1.908,-7.661 -4.074,-9.263 -7.86,-2.106 -13.369,-7.089 -18.3,-13.091 -2.692,-3.277 -3.918,-7.048 -3.944,-11.293 1.562,4.006 3.176,7.932 6.47,10.906 4.89,4.416 9.803,8.693 16.847,9.173 1.301,0.088 2.601,0.549 3.848,0.992 3.312,1.175 4.73,0.587 5.637,-2.765 0.547,-2.022 0.703,-4.147 1.123,-6.207 0.212,-1.041 -0.152,-1.649 -0.996,-2.198 -4.623,-3.008 -8.472,-7.121 -13.777,-9.186 -3.478,-1.354 -4.472,-4.564 -5.039,-8.506 4.634,8.088 13,9.793 19.806,13.775 0.424,0.248 1.116,0.298 1.593,0.149 2.754,-0.856 4.518,-8.619 2.395,-10.552 -2.901,-2.643 -4.939,-6.038 -8.661,-8.048 -2.719,-1.469 -3.33,-4.944 -2.923,-8.267 0.448,0.109 0.799,0.129 0.812,0.206 0.706,4.209 3.393,6.423 7.318,7.562 1.528,0.444 2.435,1.874 3.529,2.968 2.953,2.953 3.568,2.796 4.862,-1.293 0.266,-0.841 0.578,-1.716 0.592,-2.579 0.079,-4.766 0.287,-9.545 0.037,-14.297 -0.28,-5.294 -3.705,-7.075 -8.552,-4.739 -5.348,2.579 -9.714,6.586 -14.434,10.067 -8.107,5.977 -16.991,10.49 -26.47,13.714 -10.698,3.64 -19.423,9.785 -25.306,19.416 -6.131,10.037 -8.61,21.031 -6.789,32.795 M 328.35,231.364 c -0.543,-3.907 -3.886,-5.066 -6.94,-5.682 -3.979,-0.801 -8.094,-1.249 -12.198,-1.029 -4.088,0.22 -5.249,1.846 -3.775,5.53 3.325,8.307 7.839,15.665 16.542,19.421 4.541,1.96 5.895,1.167 6.387,-3.703 0.11,-1.096 0.388,-2.176 0.48,-3.272 0.083,-0.99 0.017,-1.992 0.017,-2.989 0.027,-10e-4 0.055,-0.003 0.082,-0.005 -0.186,-2.759 -0.216,-5.539 -0.595,-8.271 m 0.007,-37.302 c -0.25,-3.003 -1.73,-3.852 -4.514,-2.904 -10.302,3.51 -17.235,10.169 -19.604,21.081 -0.861,3.969 -0.304,4.969 3.652,5.04 5.094,0.091 10.197,-0.039 15.288,-0.257 3.218,-0.138 5.085,-2.263 5.321,-5.68 0.099,-1.435 0.056,-2.881 0.065,-4.322 0.009,-1.329 0.002,-2.659 0.002,-3.989 -0.052,0 -0.103,0 -0.156,0 0,-2.991 0.194,-5.999 -0.054,-8.969 m -349.236,-0.566 c -0.298,-2.991 -1.941,-3.91 -4.86,-3.193 -11.404,2.803 -17.79,10.64 -21.308,21.258 -0.954,2.876 0.352,4.522 3.722,4.827 2.967,0.269 5.978,0.056 8.97,0.056 v 0.061 c 2.438,0 4.878,-0.037 7.315,0.008 3.522,0.066 5.479,-1.936 5.899,-5.108 0.787,-5.939 0.855,-11.933 0.262,-17.909 m -25.636,36.719 c 4.127,9.55 9.701,17.714 20.931,19.82 3.173,0.595 4.248,-0.154 4.571,-3.446 0.478,-4.856 0.338,-9.735 0.006,-14.585 -0.312,-4.571 -2.469,-6.447 -7.083,-6.588 -2.321,-0.07 -4.646,-0.012 -6.97,-0.012 v 0.279 c -2.765,0 -5.544,-0.181 -8.289,0.049 -2.95,0.247 -4.256,1.961 -3.166,4.483 M 335.99,210.309 c 0.248,4.382 2.282,6.05 6.659,6.197 2.437,0.082 4.879,0.015 7.318,0.015 v -0.053 c 2.772,0 5.561,0.189 8.312,-0.048 3.376,-0.291 4.818,-1.987 3.895,-4.743 -3.543,-10.591 -9.845,-18.557 -21.274,-21.317 -3.418,-0.825 -4.907,0.106 -5.026,3.657 -0.181,5.426 -0.19,10.875 0.116,16.292 m 10e-4,36.139 c 0.183,3.534 1.521,4.221 5.128,3.485 10.909,-2.225 16.321,-10.275 20.402,-19.551 1.184,-2.694 -0.199,-4.445 -3.305,-4.678 -2.75,-0.206 -5.527,-0.043 -8.291,-0.043 v -0.257 c -2.213,0 -4.428,-0.048 -6.639,0.01 -4.655,0.123 -6.872,1.838 -7.222,6.451 -0.366,4.838 -0.323,9.733 -0.073,14.583 M 297.261,86.051 c 7.862,3.852 15.809,7.505 23.916,10.801 4.939,2.007 8.325,1.14 11.842,-2.89 2.126,-2.436 3.713,-5.246 5.187,-8.103 6.212,-12.042 11.359,-24.5 15.293,-37.493 2.133,-7.046 0.367,-12.341 -5.001,-17.207 -11.164,-10.121 -22.047,-20.553 -33.467,-30.394 -2.043,-1.761 -4.103,-3.54 -7.117,-2.243 -2.979,1.282 -3.69,3.983 -4.058,6.779 -1.066,8.108 -1.828,16.261 -3.099,24.335 -1.968,12.513 -5.551,24.626 -9.813,36.54 -0.867,2.423 -1.457,4.883 -1.237,7.911 -0.54,5.556 2.32,9.399 7.554,11.964 m 55.116,27.01 c 1.416,0.698 2.848,2.43 4.425,-0.088 8.842,-14.124 17.291,-28.432 22.07,-44.564 0.63,-2.124 1.238,-4.255 1.853,-6.374 -0.282,-2.203 -1.973,-3.307 -3.58,-4.044 -0.987,-0.452 -0.964,1.201 -1.236,1.929 -4.735,12.677 -9.698,25.253 -15.8,37.355 -2.251,4.465 -4.722,8.785 -7.476,12.957 -0.527,0.797 -2.331,1.806 -0.256,2.829 m 12.059,6.139 c 10.626,5.486 20.862,11.726 31.933,16.35 9.837,4.11 12.6,3.325 18.574,-5.53 3.666,-5.435 6.121,-12.671 6.108,-18.749 -0.283,-7.437 -2.801,-14.763 -8.741,-20.543 -8.336,-8.111 -16.858,-16.031 -25.275,-24.059 -1.383,-1.319 -2.203,-1.65 -2.819,0.668 -4.407,16.579 -12.759,31.322 -21.523,45.86 -2.337,3.876 -2.404,3.861 1.743,6.003 M 36.214,78.069 c 3.401,6.986 7.091,13.823 11.553,20.196 7.436,10.623 16.166,13.13 28.671,9.444 17.621,-5.194 34.738,-12.06 53.061,-14.961 31.794,-5.034 62.539,-1.229 92.558,9.768 7.199,2.637 14.546,4.665 21.981,6.439 9.159,2.185 16.455,-1.639 21.541,-8.536 12.387,-16.796 20.428,-35.78 25.512,-55.958 4.098,-16.269 6.348,-32.596 6.949,-48.984 0.181,-4.938 4.272,-8.83 9.213,-8.83 2.667,0 5.191,1.163 6.95,3.169 0.49,0.559 0.998,1.112 1.524,1.656 15.264,15.809 31.76,30.321 47.792,45.318 18.387,17.198 36.865,34.296 54.685,52.09 4.919,4.911 8.933,10.311 9.22,17.469 0.56,13.948 -4.107,25.884 -14.549,35.373 -3.62,3.289 -7.739,4.054 -12.355,2.481 -5.889,-2.007 -11.593,-4.468 -17.181,-7.17 -23.45,-11.339 -46.525,-23.471 -70.642,-33.401 -7.99,-3.29 -15.81,-7.064 -24.233,-9.161 -6.506,-1.619 -12.466,0.012 -15.707,7.437 -2.566,5.876 -6.868,10.757 -11.937,14.685 -2.659,2.06 -2.811,3.961 -0.7,5.696 0.77,0.632 1.612,1.176 2.414,1.77 21.526,15.94 39.175,35.199 50.719,59.602 0.822,1.739 2.848,2.499 4.618,1.746 29.266,-12.463 53.517,10.022 53.097,35.445 -0.249,15.069 -12.944,35.439 -32.46,37.937 -2.872,0.367 -3.624,1.491 -3.428,4.241 0.266,3.752 0.102,7.538 0.069,11.309 -0.027,3.025 -1.016,5.716 -3.418,7.627 -1.368,1.089 -1.533,2.204 -1.139,3.775 0.347,1.378 0.373,2.84 0.509,4.269 0.818,8.64 0.056,17.283 0.039,25.925 -0.06,29.49 -5.356,57.996 -15.977,85.509 -0.859,2.225 -1.776,4.428 -2.866,7.14 3.597,-1.26 6.244,-2.987 8.811,-4.861 5.725,-4.179 11.051,-8.952 17.502,-12.056 6.878,-3.309 14.152,-0.39 15.549,6.531 1.44,7.135 0.712,14.351 -0.661,21.454 -0.396,2.048 -1.283,4.028 -2.839,5.567 -0.676,0.668 -0.941,1.381 -0.809,2.378 0.581,4.401 -1.218,8.045 -4.039,11.18 -0.996,1.107 -1.243,2.068 -1.267,3.492 -0.076,4.565 -0.221,9.252 -4.046,12.555 -1.411,1.218 -1.844,2.467 -1.998,4.236 -0.586,6.736 -3.458,12.12 -9.859,15.053 -1.246,0.571 -1.373,1.458 -1.722,2.53 -2.345,7.199 -6.129,13.063 -14.277,14.589 -0.899,0.168 -1.32,0.612 -1.635,1.398 -0.98,2.446 -3.025,3.767 -5.296,4.776 -10.466,4.647 -21.056,4.263 -31.697,0.718 -1.367,-0.455 -2.618,-1.215 -3.682,-2.187 -5.486,-5.01 -8.626,-11.386 -10.443,-18.341 -0.715,-2.736 -1.252,-2.917 -3.436,-1.306 -17.062,12.588 -36.206,20.494 -56.87,24.827 -10.969,2.3 -21.965,3.545 -32.122,-2.959 -6.118,-3.917 -13.975,-3.787 -20.082,0.148 -5.378,3.465 -11.397,4.658 -17.774,4.56 -8.189,-0.124 -16.059,-1.954 -23.841,-4.202 -35.996,-10.395 -65.338,-30.429 -86.849,-61.227 -16.806,-24.06 -25.94,-51.286 -31.36,-79.916 -2.86,-15.107 -3.367,-30.39 -3.809,-45.679 -0.262,-9.079 -0.666,-18.186 0.962,-27.206 0.21,-1.169 -0.444,-1.835 -1.245,-2.514 -2.739,-2.323 -3.737,-5.418 -3.739,-8.891 -0.002,-3.77 -0.016,-7.545 0.138,-11.311 0.068,-1.673 -0.093,-2.631 -2.114,-2.883 -12.42,-1.55 -20.974,-8.546 -27.393,-18.603 -12.321,-19.308 -5.531,-45.341 15.2,-55.078 10.603,-4.98 21.392,-4.609 32.053,0.222 2.087,0.945 2.978,0.827 3.928,-1.353 2.126,-4.876 4.488,-9.643 7.426,-14.113 12.065,-18.359 26.728,-34.224 44.751,-46.893 3.621,-2.545 3.682,-3.703 0.604,-6.69 -4.61,-4.474 -9.452,-8.717 -13.093,-14.115 -5.846,-8.666 -10.693,-10.241 -20.399,-6.594 -22.753,8.55 -44.81,18.685 -66.518,29.579 -12.984,6.517 -25.896,13.161 -39.478,18.397 -5.875,2.266 -10.691,1.024 -15.144,-3.353 -7.893,-7.76 -11.905,-17.278 -13.073,-28.062 -0.877,-8.091 1.257,-15.236 7.134,-21.264 20.838,-21.375 42.986,-41.37 64.745,-61.773 13.752,-12.894 27.867,-25.404 40.93,-39.022 0.049,-0.051 0.097,-0.103 0.146,-0.154 2.073,-2.188 4.912,-3.6 7.925,-3.517 5.236,0.145 9.543,4.3 9.755,9.564 1.139,28.353 6.328,55.892 18.967,81.854"
             style="fill:#471401;fill-opacity:1;fill-rule:nonzero;stroke:none"
             id="path220" />
        </g>
        <g
           id="g222"
           transform="translate(159.7997,236.4719)">
          <path
             d="M 0,0 C 8.443,3.777 17.177,3.376 26.118,2.339 37.641,1.003 47.73,-4.108 57.802,-9.127 c 6.25,-3.114 11.999,-7.387 14.169,-14.661 1.745,-5.852 -0.514,-9.459 -6.629,-10.395 -6.572,-1.007 -13.19,-1.797 -19.053,-1.411 -13.051,0.423 -25.092,1.534 -36.692,6.063 -7.064,2.758 -12.398,7.111 -16.32,13.447 C -9.937,-10.889 -6.638,-2.969 0,0 m -0.258,-33.362 c 13.456,-6.502 27.727,-9.003 43.6,-8.335 7.869,-0.255 16.721,0.132 25.537,1.124 7.021,0.79 11.487,5.913 11.2,12.898 -0.214,5.215 -1.71,10.048 -5.181,14.089 -3.787,4.409 -8.05,8.351 -13.303,10.873 C 50.433,2.647 39.343,8.17 26.74,9.669 16.47,10.89 6.438,11.166 -3.265,6.784 -13.735,2.057 -18.68,-10.581 -13.449,-20.162 c 3.073,-5.629 7.29,-10.349 13.191,-13.2"
             style="fill:#471401;fill-opacity:1;fill-rule:nonzero;stroke:none"
             id="path224" />
        </g>
        <g
           id="g226"
           transform="translate(310.6172,213.2441)">
          <path
             d="m 0,0 c 2.774,7.572 9.076,11.817 16.009,15.102 2.393,1.134 4.876,2.085 7.235,3.327 12.21,6.427 25.27,8.776 38.918,7.48 6.03,-0.573 11.732,-2.351 15.485,-7.838 2.944,-4.302 2.717,-7.836 0.018,-12.274 C 72.494,-2.7 64.098,-5.885 55.332,-8.613 45.803,-11.579 35.935,-11.959 24.364,-12.435 19.608,-12.742 13.216,-11.928 6.852,-11.036 0.273,-10.115 -2.275,-6.211 0,0 m 3.641,-17.428 c 8.494,-0.89 17.011,-1.269 25.559,-1.027 13.03,-0.799 25.585,1.446 37.794,5.97 8.502,3.151 14.865,8.671 18.878,16.795 2.122,4.297 2.131,8.769 0.431,13.229 C 82.379,27.83 73.969,32.14 63.871,33.212 48.445,34.849 33.637,32.169 19.802,24.898 17.737,23.813 15.553,23.002 13.472,21.993 2.986,16.91 -6.069,10.454 -8.101,-2.193 -9.439,-10.529 -4.787,-16.545 3.641,-17.428"
             style="fill:#471401;fill-opacity:1;fill-rule:nonzero;stroke:none"
             id="path228" />
        </g>
        <g
           id="g230"
           transform="translate(339.8493,155.5072)">
          <path
             d="m 0,0 c -1.264,-0.514 -2.477,-1.05 -3.038,-2.386 -2.97,-7.065 -6.734,-13.707 -10.597,-20.309 -1.386,-2.367 -0.123,-4.099 2.887,-4.005 2.608,0.51 5.293,1.59 7.836,2.921 27.23,14.246 50.713,32.816 67.668,58.876 0.36,0.554 0.68,1.142 0.941,1.748 0.257,0.598 0.569,1.324 -0.171,1.764 C 64.968,38.941 64.509,38.412 64.07,38.094 61.558,36.276 59.012,34.503 56.54,32.633 39.049,19.403 20.345,8.28 0,0"
             style="fill:#471401;fill-opacity:1;fill-rule:nonzero;stroke:none"
             id="path232" />
        </g>
        <g
           id="g234"
           transform="translate(211.0796,129.3427)">
          <path
             d="m 0,0 c 1.724,-0.604 3.585,-1.151 4.973,0.389 1.473,1.634 0.006,3.144 -0.82,4.491 -3.534,5.769 -6.762,11.696 -9.365,17.943 -0.744,1.786 -1.995,2.761 -3.743,3.47 -20.246,8.206 -38.818,19.319 -56.232,32.444 -2.889,2.178 -5.899,4.195 -9.023,6.406 -0.722,-1.766 -0.065,-2.725 0.568,-3.604 4.335,-6.019 8.414,-12.246 13.326,-17.813 C -47.74,29.474 -32.611,18.307 -16.662,8.193 -11.422,4.869 -5.882,2.063 0,0"
             style="fill:#471401;fill-opacity:1;fill-rule:nonzero;stroke:none"
             id="path236" />
        </g>
        <g
           id="g238"
           transform="translate(255.2363,208.8034)">
          <path
             d="m 0,0 c 2.346,7.217 5.491,14.044 10.067,20.118 3.571,4.741 8.088,4.905 11.471,0.122 7.284,-10.3 12.466,-21.441 12.157,-34.472 -0.102,-4.323 -0.988,-5.278 -5.336,-6.016 -4.159,-0.705 -8.325,-1.209 -13.016,-1.174 -4.211,-0.129 -8.8,0.675 -13.399,1.345 -2.666,0.388 -3.725,2.175 -3.827,4.656 C -2.096,-10.182 -1.633,-5.025 0,0 m 1.434,-26.77 c 4.667,-1.235 9.432,-1.162 14.2,-1.345 3.646,0.199 7.316,0.207 10.933,0.647 3.976,0.483 7.754,1.382 10.285,5.179 3.619,5.43 2.357,11.128 1.11,16.674 -2.036,9.055 -6.466,17.149 -11.172,25.075 -1.723,2.904 -4.083,5.207 -6.659,7.319 -2.579,2.115 -5.551,2.327 -8.114,0.256 C 9.799,25.243 7.607,23.41 5.951,20.964 2.644,16.077 -0.003,10.829 -2.422,5.501 -5.36,-0.971 -7.387,-7.762 -7.411,-15.004 -7.43,-20.712 -3.969,-25.34 1.434,-26.77"
             style="fill:#471401;fill-opacity:1;fill-rule:nonzero;stroke:none"
             id="path240" />
        </g>
        <g
           id="g242"
           transform="translate(248.7721,148.4703)">
          <path
             d="m 0,0 c 4.945,-8.56 13.242,-11.129 22.618,-12.51 4.342,0.923 9.11,1.483 13.269,4.012 3.908,2.377 7.519,5.117 9.358,9.556 0.821,1.983 1.622,4.092 0.112,5.97 C 43.679,9.116 41.612,7.746 39.912,6.951 33.223,3.828 26.221,2.823 18.907,3.208 13.369,3.499 8.383,5.553 3.318,7.497 -0.091,8.805 -2.099,6.964 -1.323,3.376 -1.07,2.207 -0.599,1.037 0,0"
             style="fill:#471401;fill-opacity:1;fill-rule:nonzero;stroke:none"
             id="path244" />
        </g>
        <g
           id="g246"
           transform="translate(360.2475,321.7073)">
          <path
             d="M 0,0 C 4.618,0.01 8.509,3.47 8.495,7.555 8.48,12.279 5.184,15.896 0.906,15.883 -3.735,15.868 -7.629,12.266 -7.649,7.967 -7.669,3.707 -4.101,-0.009 0,0"
             style="fill:#471401;fill-opacity:1;fill-rule:nonzero;stroke:none"
             id="path248" />
        </g>
        <g
           id="g250"
           transform="translate(181.7987,321.7088)">
          <path
             d="M 0,0 C 4.12,-0.068 7.78,3.565 7.846,7.79 7.914,12.047 4.013,15.802 -0.561,15.883 -4.876,15.96 -8.216,12.462 -8.35,7.726 -8.465,3.664 -4.585,0.075 0,0"
             style="fill:#471401;fill-opacity:1;fill-rule:nonzero;stroke:none"
             id="path252" />
        </g>
        <g
           id="g254"
           transform="translate(271.2283,343.4297)">
          <path
             d="M 0,0 C 4.477,0.076 8.484,3.939 8.481,8.177 8.48,12.76 4.601,16.366 -0.256,16.301 -4.913,16.239 -8.734,12.63 -8.778,8.253 -8.821,3.915 -4.574,-0.078 0,0"
             style="fill:#471401;fill-opacity:1;fill-rule:nonzero;stroke:none"
             id="path256" />
        </g>
        <g
           id="g258"
           transform="translate(167.3668,219.3075)">
          <path
             d="m 0,0 c 1.285,-0.335 2.595,-0.595 3.909,-0.792 11.851,-1.779 23.621,-3.869 34.805,-8.43 2.042,-0.833 4.21,-1.395 6.361,-1.914 1.868,-0.451 3.643,-0.127 4.426,1.905 0.724,1.882 -0.321,3.182 -1.836,4.167 -0.556,0.362 -1.158,0.652 -1.729,0.994 C 32.215,4.146 16.629,5.598 1.386,8.234 -1.03,8.243 -3.2,7.717 -3.709,4.994 -4.24,2.155 -2.55,0.665 0,0"
             style="fill:#471401;fill-opacity:1;fill-rule:nonzero;stroke:none"
             id="path260" />
        </g>
        <g
           id="g262"
           transform="translate(330.3882,208.3171)">
          <path
             d="m 0,0 c 0.747,0.207 1.477,0.477 2.223,0.692 7.447,2.153 14.552,5.421 22.263,6.72 6.45,1.087 12.885,2.266 19.322,3.431 2.502,0.454 4.369,1.606 4.504,4.147 -0.108,3.119 -2.497,4.692 -6.184,4.077 C 34.693,17.828 27.266,16.521 19.867,15.086 11.839,13.529 4.431,10.302 -2.64,6.264 -4.361,5.281 -5.948,4.016 -5.063,1.781 -4.141,-0.551 -2.101,-0.582 0,0"
             style="fill:#471401;fill-opacity:1;fill-rule:nonzero;stroke:none"
             id="path264" />
        </g>
      </g>
    </g>
  </g>
</svg>
