<?xml version="1.0" encoding="UTF-8" standalone="no"?>
<!-- Created with Inkscape (http://www.inkscape.org/) -->

<svg
   width="105.43998mm"
   height="35.344307mm"
   viewBox="0 0 105.43998 35.344307"
   version="1.1"
   id="svg1"
   xml:space="preserve"
   xmlns="http://www.w3.org/2000/svg"
   xmlns:svg="http://www.w3.org/2000/svg"><defs
     id="defs1" /><g
     id="layer1"
     transform="translate(-19.702348,-64.386564)"><g
       id="g106767"
       transform="translate(2.7563906,-0.39377009)"
       style="fill:#ffffff;fill-opacity:1"><path
         style="fill:#ffffff;fill-opacity:1;stroke:none;stroke-width:0.315579"
         d="m 30.310935,70.541111 c -1.17682,-5.611487 -8.52586,-8.026571 -11.86167,-3.087867 -1.94999,2.886986 -2.049545,7.948584 -0.02493,10.842798 2.365613,3.381672 7.696749,3.556983 10.363294,0.479591 0.580929,-0.670434 1.773272,-2.545373 1.419089,-3.562111 -0.230375,-0.661321 -2.785236,-0.546368 -3.290703,-0.282891 -0.958468,0.499605 -0.996872,1.988519 -2.288823,2.36638 -0.85335,0.249582 -1.805202,0.158054 -2.536725,-0.428537 -2.379157,-1.9078 -2.040127,-8.180088 1.340148,-8.606151 1.856616,-0.234011 2.084269,1.426811 3.331557,2.274206 0.750964,0.510196 2.738694,0.268722 3.548761,0.0046 m 0.897433,-5.279956 v 11.054901 c 0,0.933359 -0.384879,3.275225 0.153727,4.025406 0.470453,0.655255 2.580816,0.264559 3.286432,0.264559 0,-2.181507 -0.535951,-5.390233 0.221818,-7.424811 0.478247,-1.284074 1.918987,-1.974368 2.860222,-0.803094 1.035073,1.28805 0.507691,4.302639 0.507691,5.917926 0,0.547058 -0.202047,1.754333 0.239823,2.140397 0.618895,0.540728 2.432773,0.169582 3.200336,0.169582 0,-3.655904 1.214237,-11.537271 -3.888876,-11.536911 -1.183985,8.2e-5 -2.054266,0.834355 -3.141014,1.142003 v -4.949949 h -3.44016 m 11.965771,7.754932 h 3.440154 c 0.399435,-0.93434 1.142487,-1.42545 2.094011,-1.269065 0.533022,0.0876 1.57759,0.608524 1.204425,1.396379 -0.338828,0.715348 -1.631946,0.640395 -2.251431,0.723269 -1.483621,0.198471 -3.723046,0.42664 -4.602573,1.969287 -1.42652,2.502044 1.010306,4.806158 3.106853,5.049895 1.712289,0.199067 3.057378,-0.865642 4.337592,-1.929821 0.113924,0.445941 0.172202,1.18633 0.533082,1.480405 0.434808,0.354316 2.725534,0.423333 2.952896,-0.21287 0.214723,-0.600834 -0.203498,-1.812552 -0.299377,-2.450533 -0.287158,-1.910722 0.236104,-4.274091 -0.364695,-6.076936 -1.162902,-3.489571 -7.150349,-3.359915 -9.237811,-1.124434 -0.6449,0.690627 -0.754535,1.516418 -0.913126,2.444424 M 58.43049,70.376138 v -0.989993 h -3.290587 v 8.249926 l 0.239824,2.800392 3.050763,0.169583 c 0,-2.301911 -0.435483,-5.234019 0.284949,-7.424808 0.475063,-1.444635 2.025975,-1.954389 2.940774,-0.652863 0.955422,1.359317 0.51358,4.150586 0.51358,5.767691 0,0.547059 -0.202046,1.754334 0.239824,2.140397 0.597479,0.522021 2.311693,0.169583 3.050763,0.169583 0,-3.674335 1.226191,-12.607172 -4.487164,-11.473253 -0.978298,0.194159 -1.665174,0.81466 -2.542726,1.243345 m -8.376041,5.114953 c 0.441826,1.951296 -1.956124,3.270655 -3.420075,2.403426 -1.037156,-0.6144 -0.159109,-1.4379 0.57832,-1.591038 0.399712,-0.083 0.800469,-0.156486 1.196463,-0.260355 0.559758,-0.14683 1.091508,-0.38535 1.645292,-0.552033 m 19.593951,0 v 3.794964 h 3.290588 v -3.794988 h -3.290585 m -27.670841,15.83986 h -3.290588 c -0.428434,1.57788 -2.229788,2.24336 -3.390994,1.06701 -1.566693,-1.58712 -1.205343,-6.15217 1.446556,-6.05567 1.074142,0.0391 1.302524,1.017 2.142598,1.42413 0.814555,0.39476 2.209745,0.0996 3.092428,0.0996 -0.124562,-2.6486 -2.442753,-3.676923 -4.487165,-4.027569 -3.502819,-0.60078 -6.625363,2.019399 -6.578404,6.007549 0.04713,4.00293 3.241777,6.09136 6.578404,5.65706 2.26846,-0.29527 4.479616,-1.26937 4.487165,-4.17207 m 1.49572,-3.62997 c 0.887861,0 2.281649,0.29399 3.102233,-0.0994 0.777299,-0.37267 0.999296,-1.18052 1.983217,-1.21088 0.578617,-0.0179 2.269866,0.60271 1.548463,1.54724 -0.403603,0.52844 -1.426451,0.5428 -1.997178,0.63275 -1.575202,0.24827 -3.632205,0.2661 -4.723639,1.77743 -1.394552,1.93104 0.272928,4.61657 2.180913,5.04518 2.240045,0.50321 3.429928,-0.70853 5.235023,-1.75234 0.166733,2.24859 1.983416,1.64998 3.58973,1.64998 -0.199224,-1.17962 -0.543221,-2.43498 -0.592398,-3.62996 -0.08425,-2.0473 0.53436,-4.81206 -0.919019,-6.41763 -2.384058,-2.633707 -9.319743,-2.078957 -9.407345,2.45766 m 10.619619,-3.629969 2.243582,7.919929 1.023573,3.03542 1.668724,0.26455 c -0.484754,1.52924 -1.338524,1.76224 -2.692297,1.48499 v 2.96997 c 1.720226,0.913223 3.878634,0.1018 4.865941,-1.64998 1.158376,-2.05531 1.69923,-4.65022 2.390616,-6.92994 0.700481,-2.30971 1.585064,-4.58015 2.166486,-6.929938 -0.736523,-0.240162 -2.552732,-0.491076 -3.227919,0.0046 -0.501789,0.368369 -0.593194,1.389458 -0.778442,1.975398 -0.598037,1.89159 -1.412139,3.95875 -1.67738,5.93994 H 59.62707 l -1.537616,-5.77495 -0.789755,-2.140388 -3.206798,-0.169582 m 15.555502,0 v 3.79496 h 3.290588 v -3.79496 h -3.290588 m -19.294804,6.10494 c -0.01458,1.77806 -1.792513,3.43596 -3.431389,2.44544 -0.760166,-0.45943 -0.64604,-1.35647 0.143686,-1.62987 0.535648,-0.18543 1.100729,-0.10578 1.642408,-0.24291 0.567726,-0.14372 1.068499,-0.45959 1.645295,-0.57266 z"
         id="path106767" /><text
         xml:space="preserve"
         style="font-style:normal;font-variant:normal;font-weight:normal;font-stretch:normal;font-size:29.2477px;font-family:'Cascadia Mono';-inkscape-font-specification:'Cascadia Mono, Normal';font-variant-ligatures:normal;font-variant-caps:normal;font-variant-numeric:normal;font-variant-east-asian:normal;text-align:start;writing-mode:lr-tb;direction:ltr;text-anchor:start;fill:#ffffff;fill-opacity:1;stroke-width:2.43731"
         x="72.630577"
         y="90.966095"
         id="text106767"><tspan
           id="tspan106767"
           x="72.630577"
           y="90.966095"
           style="font-style:normal;font-variant:normal;font-weight:normal;font-stretch:normal;font-size:29.2477px;font-family:'Cascadia Mono';-inkscape-font-specification:'Cascadia Mono, Normal';font-variant-ligatures:normal;font-variant-caps:normal;font-variant-numeric:normal;font-variant-east-asian:normal;fill:#ffffff;fill-opacity:1;stroke-width:2.43731">360</tspan></text></g></g></svg>
