<?xml version="1.0" encoding="UTF-8" standalone="no"?>
<!-- Created with Inkscape (http://www.inkscape.org/) -->

<svg
   version="1.1"
   id="svg2"
   width="760.30676"
   height="180.0768"
   viewBox="0 0 760.30676 180.07679"
   sodipodi:docname="chancay logos y colores.ai"
   xmlns:inkscape="http://www.inkscape.org/namespaces/inkscape"
   xmlns:sodipodi="http://sodipodi.sourceforge.net/DTD/sodipodi-0.dtd"
   xmlns="http://www.w3.org/2000/svg"
   xmlns:svg="http://www.w3.org/2000/svg">
  <defs
     id="defs6">
    <clipPath
       clipPathUnits="userSpaceOnUse"
       id="clipPath276">
      <path
         d="M 0,135.058 H 570.23 V 0 H 0 Z"
         id="path274" />
    </clipPath>
  </defs>
  <sodipodi:namedview
     id="namedview4"
     pagecolor="#ffffff"
     bordercolor="#000000"
     borderopacity="0.25"
     inkscape:showpageshadow="2"
     inkscape:pageopacity="0.0"
     inkscape:pagecheckerboard="0"
     inkscape:deskcolor="#d1d1d1"
     showgrid="false" />
  <g
     id="g268"
     inkscape:groupmode="layer"
     inkscape:label="Page 3"
     transform="matrix(1.3333333,0,0,-1.3333333,2.0271636e-7,180.07733)">
    <g
       id="g270">
      <g
         id="g272"
         clip-path="url(#clipPath276)">
        <g
           id="g278"
           transform="translate(469.8326,19.8404)">
          <path
             d="m 0,0 c -1.484,1.12 -3.216,1.898 -5.185,2.352 0.781,0.241 1.521,0.529 2.178,0.912 1.76,1.026 3.068,2.358 3.924,3.997 0.855,1.638 1.284,3.361 1.284,5.171 0,2.983 -1.016,5.378 -3.045,7.189 -2.029,1.808 -4.804,2.713 -8.325,2.713 -1.662,0 -3.349,-0.22 -5.06,-0.66 -1.713,-0.44 -3.228,-1.076 -4.548,-1.907 -0.196,-0.049 -0.306,-0.136 -0.33,-0.256 -0.025,-0.123 0.011,-0.306 0.11,-0.551 l 0.587,-1.32 c 0.195,-0.44 0.514,-0.539 0.953,-0.293 1.124,0.586 2.359,1.111 3.704,1.576 1.345,0.465 2.799,0.698 4.365,0.698 2.64,0 4.694,-0.649 6.16,-1.944 1.468,-1.297 2.201,-3.143 2.201,-5.538 0,-1.419 -0.306,-2.8 -0.916,-4.144 C -2.555,6.649 -3.594,5.549 -5.061,4.694 -6.527,3.837 -8.534,3.411 -11.075,3.411 c -0.146,0 -0.269,-0.05 -0.367,-0.147 -0.098,-0.099 -0.147,-0.221 -0.147,-0.367 V 1.283 c 0,-0.099 0.049,-0.209 0.147,-0.329 0.098,-0.123 0.244,-0.185 0.44,-0.185 3.568,0 6.381,-0.782 8.435,-2.347 2.054,-1.564 3.081,-3.715 3.081,-6.454 0,-2.542 -0.869,-4.694 -2.605,-6.455 -1.736,-1.76 -4.046,-2.64 -6.931,-2.64 -1.906,0 -3.655,0.233 -5.244,0.697 -1.589,0.465 -3.019,1.039 -4.291,1.723 -0.44,0.246 -0.782,0.123 -1.027,-0.366 l -0.513,-1.247 c -0.098,-0.195 -0.135,-0.354 -0.11,-0.477 0.025,-0.121 0.135,-0.232 0.33,-0.33 1.467,-0.928 3.178,-1.613 5.134,-2.054 1.956,-0.44 3.888,-0.659 5.794,-0.659 2.201,0 4.267,0.452 6.199,1.356 1.931,0.906 3.495,2.237 4.694,3.997 1.197,1.761 1.797,3.913 1.797,6.455 C 3.741,-4.561 2.494,-1.884 0,0"
             style="fill:#471401;fill-opacity:1;fill-rule:nonzero;stroke:none"
             id="path280" />
        </g>
        <g
           id="g282"
           transform="translate(499.7313,5.6185)">
          <path
             d="m 0,0 c -1.824,-1.899 -4.383,-2.846 -7.679,-2.846 -3.247,0 -5.78,0.947 -7.603,2.846 -1.823,1.897 -2.734,4.57 -2.734,8.016 0,3.446 0.911,6.129 2.734,8.053 1.823,1.921 4.356,2.883 7.603,2.883 3.296,0 5.855,-0.962 7.679,-2.883 C 1.823,14.145 2.734,11.462 2.734,8.016 2.734,4.57 1.823,1.897 0,0 m 4.194,15.806 c -1.224,1.997 -2.846,3.471 -4.869,4.42 -2.023,0.948 -4.258,1.423 -6.704,1.423 -2.537,0 -4.683,-0.519 -6.463,-1.528 l 10.658,15.611 c 0.15,0.25 0.187,0.45 0.112,0.6 -0.075,0.149 -0.237,0.224 -0.486,0.224 h -1.948 c -0.35,0 -0.599,-0.063 -0.75,-0.187 -0.149,-0.126 -0.299,-0.288 -0.449,-0.488 l -7.191,-10.786 c -1.848,-2.797 -3.322,-5.119 -4.42,-6.967 -1.098,-1.848 -1.885,-3.521 -2.36,-5.019 -0.475,-1.498 -0.711,-3.196 -0.711,-5.093 0,-4.096 1.261,-7.392 3.783,-9.888 2.522,-2.498 5.83,-3.746 9.925,-3.746 4.094,0 7.404,1.198 9.926,3.595 2.521,2.397 3.783,5.768 3.783,10.113 0,3.147 -0.612,5.718 -1.836,7.716"
             style="fill:#471401;fill-opacity:1;fill-rule:nonzero;stroke:none"
             id="path284" />
        </g>
        <g
           id="g286"
           transform="translate(525.9438,3.4587)">
          <path
             d="m 0,0 c 3.771,0 6.682,1.549 8.736,4.653 2.051,3.101 3.077,7.414 3.077,12.937 0,5.583 -1.026,9.926 -3.077,13.03 -2.054,3.101 -4.965,4.653 -8.736,4.653 -3.827,0 -6.78,-1.552 -8.86,-4.653 -2.079,-3.104 -3.12,-7.447 -3.12,-13.03 0,-5.523 1.041,-9.836 3.12,-12.937 C -6.78,1.549 -3.827,0 0,0 m 0,-3.444 c -4.658,0 -8.431,1.815 -11.315,5.444 -2.883,3.631 -4.325,8.826 -4.325,15.59 0,6.824 1.442,12.052 4.325,15.681 2.884,3.63 6.657,5.445 11.315,5.445 4.659,0 8.415,-1.815 11.273,-5.445 2.855,-3.629 4.284,-8.857 4.284,-15.681 C 15.557,10.826 14.128,5.631 11.273,2 8.415,-1.629 4.659,-3.444 0,-3.444"
             style="fill:#471401;fill-opacity:1;fill-rule:nonzero;stroke:none"
             id="path288" />
        </g>
        <g
           id="g290"
           transform="translate(153.9744,135.0578)">
          <path
             d="m 0,0 h -11.778 c -1.158,0 -1.735,-0.579 -1.735,-1.736 V -32.73 -45.624 -82.57 c 0,-1.158 0.577,-1.736 1.735,-1.736 H 0 c 1.157,0 1.736,0.578 1.736,1.736 V -1.736 C 1.736,-0.579 1.157,0 0,0"
             style="fill:#471401;fill-opacity:1;fill-rule:nonzero;stroke:none"
             id="path292" />
        </g>
        <g
           id="g294"
           transform="translate(95.9523,135.0578)">
          <path
             d="m 0,0 h -11.653 c -1.241,0 -1.86,-0.579 -1.86,-1.736 V -82.57 c 0,-1.158 0.619,-1.736 1.86,-1.736 H 0 c 1.24,0 1.86,0.578 1.86,1.736 v 36.946 12.894 30.994 C 1.86,-0.579 1.24,0 0,0"
             style="fill:#471401;fill-opacity:1;fill-rule:nonzero;stroke:none"
             id="path296" />
        </g>
        <g
           id="g298"
           transform="translate(109.6693,89.4339)">
          <path
             d="m 0,0 h 18.935 c 1.446,0 2.619,1.172 2.619,2.619 v 7.656 c 0,1.446 -1.173,2.619 -2.619,2.619 H 0 c -1.446,0 -2.619,-1.173 -2.619,-2.619 V 2.619 C -2.619,1.172 -1.446,0 0,0"
             style="fill:#471401;fill-opacity:1;fill-rule:nonzero;stroke:none"
             id="path300" />
        </g>
        <g
           id="g302"
           transform="translate(217.9472,133.322)">
          <path
             d="m 0,0 c -0.579,1.157 -1.488,1.736 -2.727,1.736 h -13.514 c -1.24,0 -2.067,-0.579 -2.48,-1.736 l -31.614,-79.595 c -0.415,-1.074 -0.415,-1.839 0,-2.293 0.412,-0.455 1.157,-0.682 2.231,-0.682 h 9.795 c 1.817,0 3.016,0.826 3.595,2.48 l 7.199,19.37 c 0.382,1.026 1.361,1.706 2.455,1.706 h 19.193 c 1.825,0 3.09,1.819 2.455,3.53 l -2.565,6.913 c -0.381,1.026 -1.36,1.708 -2.455,1.708 h -10.165 c -1.826,0 -3.091,1.82 -2.455,3.531 l 8.738,23.509 c 0.846,2.276 4.065,2.275 4.909,-0.002 l 10.033,-27.038 4.508,-12.151 7.866,-21.2 c 0.329,-0.911 0.784,-1.53 1.363,-1.86 0.577,-0.331 1.364,-0.496 2.356,-0.496 H 29.26 c 1.072,0 1.837,0.227 2.293,0.682 0.453,0.454 0.434,1.219 -0.062,2.293 z"
             style="fill:#471401;fill-opacity:1;fill-rule:nonzero;stroke:none"
             id="path304" />
        </g>
        <g
           id="g306"
           transform="translate(328.7843,135.0578)">
          <path
             d="m 0,0 h -10.91 c -1.239,0 -1.859,-0.579 -1.859,-1.736 V -52.31 c 0,-2.627 -3.436,-3.618 -4.835,-1.395 L -50.459,-1.488 C -51.122,-0.495 -52.113,0 -53.435,0 h -12.149 c -1.24,0 -1.86,-0.579 -1.86,-1.736 V -82.57 c 0,-1.158 0.62,-1.736 1.86,-1.736 h 10.91 c 1.239,0 1.859,0.578 1.859,1.736 v 50.781 c 0,2.615 3.411,3.615 4.823,1.414 l 33.487,-52.195 c 0.412,-0.579 0.825,-1.013 1.24,-1.302 0.412,-0.29 0.908,-0.434 1.487,-0.434 H 0 c 1.24,0 1.86,0.578 1.86,1.736 V -1.736 C 1.86,-0.579 1.24,0 0,0"
             style="fill:#471401;fill-opacity:1;fill-rule:nonzero;stroke:none"
             id="path308" />
        </g>
        <g
           id="g310"
           transform="translate(475.2945,133.3655)">
          <path
             d="m 0,0 c -0.579,1.157 -1.488,1.736 -2.727,1.736 h -13.514 c -1.24,0 -2.067,-0.579 -2.48,-1.736 l -31.614,-79.595 c -0.415,-1.074 -0.415,-1.839 0,-2.293 0.412,-0.455 1.157,-0.682 2.231,-0.682 h 9.795 c 1.817,0 3.016,0.826 3.595,2.48 l 7.834,21.076 4.516,12.151 10.05,27.04 c 0.846,2.276 4.065,2.275 4.909,-0.002 l 8.723,-23.509 c 0.635,-1.71 -0.63,-3.529 -2.455,-3.529 h -10.169 c -1.094,0 -2.073,-0.681 -2.455,-1.707 l -2.569,-6.913 c -0.636,-1.71 0.63,-3.531 2.455,-3.531 H 5.314 c 1.095,0 2.075,-0.681 2.455,-1.707 l 7.233,-19.493 c 0.329,-0.911 0.784,-1.53 1.363,-1.86 0.577,-0.331 1.364,-0.496 2.356,-0.496 H 29.26 c 1.072,0 1.837,0.227 2.293,0.682 0.453,0.454 0.434,1.219 -0.062,2.293 z"
             style="fill:#471401;fill-opacity:1;fill-rule:nonzero;stroke:none"
             id="path312" />
        </g>
        <g
           id="g314"
           transform="translate(569.9541,134.3579)">
          <path
             d="m 0,0 c -0.456,0.495 -1.221,0.743 -2.294,0.743 h -9.919 c -0.91,0 -1.632,-0.248 -2.169,-0.743 -0.539,-0.496 -1.096,-1.323 -1.674,-2.48 l -14.879,-28.594 c -1.957,-3.76 -7.336,-3.76 -9.292,0 l -15.006,28.842 c -0.496,1.157 -0.992,1.942 -1.487,2.356 -0.497,0.413 -1.283,0.619 -2.356,0.619 h -10.786 c -1.075,0 -1.84,-0.268 -2.294,-0.805 -0.455,-0.539 -0.394,-1.344 0.186,-2.418 l 24.768,-44.905 c 2.214,-4.015 3.375,-8.525 3.375,-13.109 v -21.332 c 0,-1.159 0.62,-1.736 1.86,-1.736 h 11.654 c 1.239,0 1.86,0.577 1.86,1.736 v 21.108 c 0,4.584 1.161,9.094 3.375,13.109 L -0.187,-2.48 C 0.391,-1.323 0.453,-0.496 0,0"
             style="fill:#471401;fill-opacity:1;fill-rule:nonzero;stroke:none"
             id="path316" />
        </g>
        <g
           id="g318"
           transform="translate(384.4317,63.781)">
          <path
             d="m 0,0 c -8.054,0 -15.346,3.265 -20.624,8.543 -5.278,5.278 -8.543,12.57 -8.543,20.624 0,8.054 3.265,15.346 8.543,20.624 5.278,5.278 12.57,8.543 20.624,8.543 7.196,0 13.783,-2.606 18.869,-6.925 1.024,-0.87 2.532,-0.841 3.482,0.109 l 5.624,5.624 c 1.034,1.035 0.997,2.739 -0.102,3.706 C 20.439,67.394 10.683,71.364 0,71.364 c -11.652,0 -22.201,-4.723 -29.837,-12.359 -7.636,-7.637 -12.359,-18.185 -12.359,-29.838 0,-11.652 4.723,-22.201 12.359,-29.837 7.636,-7.636 18.185,-12.359 29.837,-12.359 10.683,0 20.439,3.97 27.873,10.516 1.098,0.967 1.136,2.671 0.101,3.706 L 22.351,6.816 C 21.401,7.766 19.893,7.795 18.869,6.925 13.783,2.606 7.196,0 0,0"
             style="fill:#471401;fill-opacity:1;fill-rule:nonzero;stroke:none"
             id="path320" />
        </g>
        <g
           id="g322"
           transform="translate(42.1528,63.7675)">
          <path
             d="m 0,0 c -8.046,0 -15.33,3.261 -20.603,8.534 -5.273,5.273 -8.534,12.557 -8.534,20.603 0,8.046 3.261,15.33 8.534,20.603 5.273,5.273 12.557,8.534 20.603,8.534 7.188,0 13.769,-2.603 18.85,-6.918 1.023,-0.869 2.529,-0.84 3.478,0.109 l 5.618,5.618 c 1.034,1.034 0.996,2.736 -0.102,3.702 C 20.418,67.324 10.672,71.29 0,71.29 c -11.64,0 -22.179,-4.718 -29.807,-12.346 -7.628,-7.628 -12.346,-18.167 -12.346,-29.807 0,-11.64 4.718,-22.178 12.347,-29.806 7.628,-7.628 18.166,-12.346 29.806,-12.346 10.672,0 20.418,3.966 27.844,10.504 1.097,0.966 1.135,2.669 0.101,3.703 L 22.328,6.809 C 21.379,7.758 19.873,7.787 18.85,6.918 13.769,2.603 7.188,0 0,0"
             style="fill:#471401;fill-opacity:1;fill-rule:nonzero;stroke:none"
             id="path324" />
        </g>
        <g
           id="g326"
           transform="translate(543.347,44.8382)">
          <path
             d="m 0,0 c -1.468,0 -2.664,-1.197 -2.664,-2.664 0,-1.468 1.196,-2.664 2.664,-2.664 1.468,0 2.664,1.196 2.664,2.664 C 2.664,-1.197 1.468,0 0,0 m 0,-6.887 c -2.329,0 -4.223,1.894 -4.223,4.223 0,2.329 1.894,4.223 4.223,4.223 2.329,0 4.223,-1.894 4.223,-4.223 0,-2.329 -1.894,-4.223 -4.223,-4.223"
             style="fill:#471401;fill-opacity:1;fill-rule:nonzero;stroke:none"
             id="path328" />
        </g>
      </g>
    </g>
  </g>
</svg>
